<?xml version="1.0"?>
<svg xmlns="http://www.w3.org/2000/svg" viewBox="0 0 50 50">
    <path style="text-indent:0;text-align:start;line-height:normal;text-transform:none;block-progression:tb;-inkscape-font-specification:Sans" d="M 25 1 C 18.323987 1 12.287085 3.7487687 7.9375 8.15625 A 1.0043849 1.0043849 0 0 0 7.59375 8.53125 C 5.430122 10.81754 3.6996781 13.502585 2.5625 16.5 A 1.001098 1.001098 0 0 0 2.46875 16.75 A 1.001098 1.001098 0 0 0 2.40625 16.96875 C 1.5120334 19.48161 1 22.182416 1 25 C 1 27.758956 1.4847704 30.406629 2.34375 32.875 A 1.0043849 1.0043849 0 0 0 2.65625 33.75 C 3.7978702 36.659915 5.5082127 39.271608 7.625 41.5 A 1.0043849 1.0043849 0 0 0 7.75 41.65625 C 7.7602455 41.666859 7.7709852 41.67691 7.78125 41.6875 A 1.0043849 1.0043849 0 0 0 7.90625 41.8125 C 12.261579 46.240435 18.306679 49 25 49 C 35.261773 49 44.00941 42.538423 47.4375 33.46875 A 1.0001 1.0001 0 0 0 47.53125 33.1875 C 48.46134 30.630553 49 27.876212 49 25 C 49 22.147929 48.477742 19.413843 47.5625 16.875 A 1.0001 1.0001 0 0 0 47.5625 16.84375 C 47.555838 16.825341 47.569206 16.799638 47.5625 16.78125 A 1.0001 1.0001 0 0 0 47.53125 16.75 A 1.0001 1.0001 0 0 0 47.4375 16.5 A 1.0001 1.0001 0 0 0 47.40625 16.4375 C 43.953566 7.4165971 35.226742 1 25 1 z M 25 3 C 30.295013 3 35.1401 4.8883147 38.9375 8 L 11.0625 8 C 14.8599 4.8883147 19.704987 3 25 3 z M 8.90625 10 L 41.09375 10 C 42.736248 11.758439 44.096158 13.776244 45.09375 16 L 4.90625 16 C 5.903842 13.776244 7.2637525 11.758439 8.90625 10 z M 4.15625 18 L 45.84375 18 C 46.480834 19.899044 46.874691 21.908185 46.96875 24 L 3.03125 24 C 3.1253088 21.908185 3.5191655 19.899044 4.15625 18 z M 3.03125 26 L 46.96875 26 C 46.874773 28.090006 46.479395 30.101975 45.84375 32 L 4.15625 32 C 3.520605 30.101975 3.1252274 28.090006 3.03125 26 z M 4.9375 34 L 45.0625 34 C 44.065621 36.224733 42.702727 38.241386 41.0625 40 L 8.9375 40 C 7.2972732 38.241386 5.9343789 36.224733 4.9375 34 z M 11.03125 42 L 38.96875 42 C 35.172642 45.125209 30.30823 47 25 47 C 19.69177 47 14.827358 45.125209 11.03125 42 z"/>
</svg>
