<?xml version="1.0"?>
<svg xmlns="http://www.w3.org/2000/svg" viewBox="0 0 50 50">
    <path style="text-indent:0;text-align:start;line-height:normal;text-transform:none;block-progression:tb;-inkscape-font-specification:Sans" d="M 25 1 C 11.757011 1 1 11.757011 1 25 C 1 38.242989 11.757011 49 25 49 C 38.242989 49 49 38.242989 49 25 C 49 12.06481 38.724201 1.5153021 25.90625 1.03125 C 25.610072 1.0096905 25.30042 1 25 1 z M 24 3.28125 L 24 46.71875 C 23.568728 46.493408 23.125875 46.133575 22.65625 45.5625 C 21.812664 44.53668 20.979183 42.944057 20.28125 40.9375 C 18.885384 36.924386 18 31.257285 18 25 C 18 18.742715 18.885384 13.075614 20.28125 9.0625 C 20.979183 7.0559429 21.812664 5.4633199 22.65625 4.4375 C 23.125875 3.866425 23.568728 3.5065919 24 3.28125 z M 26 3.28125 C 26.431272 3.5065919 26.874125 3.866425 27.34375 4.4375 C 28.187336 5.4633199 29.020817 7.0559429 29.71875 9.0625 C 31.114616 13.075614 32 18.742715 32 25 C 32 31.257285 31.114616 36.924386 29.71875 40.9375 C 29.020817 42.944057 28.187336 44.53668 27.34375 45.5625 C 26.874125 46.133575 26.431272 46.493408 26 46.71875 L 26 3.28125 z M 20.53125 3.96875 C 19.711293 5.1657394 19.016554 6.6516251 18.40625 8.40625 C 16.906685 12.717499 16 18.554736 16 25 C 16 31.445264 16.906685 37.282501 18.40625 41.59375 C 19.016554 43.348375 19.711293 44.834261 20.53125 46.03125 C 18.252796 44.988138 16.202491 43.134832 14.5 40.6875 C 11.74074 36.721063 10 31.163295 10 25 C 10 18.836705 11.74074 13.278937 14.5 9.3125 C 16.202491 6.8651685 18.252796 5.0118623 20.53125 3.96875 z M 29.46875 3.96875 C 31.747204 5.0118623 33.797509 6.8651685 35.5 9.3125 C 38.25926 13.278937 40 18.836705 40 25 C 40 31.163295 38.25926 36.721063 35.5 40.6875 C 33.797509 43.134832 31.747204 44.988138 29.46875 46.03125 C 30.288707 44.834261 30.983446 43.348375 31.59375 41.59375 C 33.093315 37.282501 34 31.445264 34 25 C 34 18.554736 33.093315 12.717499 31.59375 8.40625 C 30.983446 6.6516251 30.288707 5.1657394 29.46875 3.96875 z M 15.34375 5.21875 C 14.452342 6.0865279 13.624199 7.0792764 12.875 8.15625 C 9.8433993 12.514176 8 18.460746 8 25 C 8 31.539254 9.8433993 37.485824 12.875 41.84375 C 13.624199 42.920724 14.452342 43.913472 15.34375 44.78125 C 8.0356888 41.206645 3 33.692797 3 25 C 3 16.307203 8.0356888 8.7933547 15.34375 5.21875 z M 34.65625 5.21875 C 41.964311 8.7933547 47 16.307203 47 25 C 47 33.692797 41.964311 41.206645 34.65625 44.78125 C 35.547658 43.913472 36.375801 42.920724 37.125 41.84375 C 40.156601 37.485824 42 31.539254 42 25 C 42 18.460746 40.156601 12.514176 37.125 8.15625 C 36.375801 7.0792764 35.547658 6.0865279 34.65625 5.21875 z" overflow="visible" font-family="Sans"/>
</svg>
